<svg viewBox="0 0 600.4621 515" fill="none" xmlns="http://www.w3.org/2000/svg" xmlns:xlink="http://www.w3.org/1999/xlink" x="0" y="0"><defs><clipPath id="clip2_2_1612">
<rect width="36" height="36" fill="white" transform="translate(293.0022, 427)"/>
</clipPath><clipPath id="clip3_2_1612">
<rect width="70.3259" height="70.3259" fill="white" transform="translate(107.72820000000002, 313) rotate(45, 0, 0)"/>
</clipPath></defs><g id="Illustration">
<g id="Frame" clip-path="url(#clip2_2_1612)">
<path id="Vector_2" d="M311.0022,432.535l17.6,-5.186l-5.14,17.651l5.14,17.601l-17.6,-5.136l-17.65,5.136l5.18,-17.601l-5.18,-17.651z" fill="black" stroke="white" stroke-miterlimit="10"/>
</g>
<g id="Frame_2" clip-path="url(#clip3_2_1612)">
<path id="Vector_3" d="M124.9472,345.509l31.476,17.15l-31.476,17.288l-17.219,31.407l-17.219,-31.407l-31.476,-17.288l31.476,-17.15l17.219,-31.545z" fill="black" stroke="white" stroke-miterlimit="10"/>
</g>
<path id="Ellipse 7" d="M345.5822,201.187c68.44,37.75 127.18,77.748 166.81,111.89c19.82,17.074 34.84,32.665 43.91,45.765c4.54,6.551 7.57,12.455 8.99,17.591c1.41,5.135 1.19,9.457 -0.71,12.9c-1.9,3.444 -5.44,5.935 -10.54,7.48c-5.09,1.546 -11.71,2.13 -19.67,1.787c-15.92,-0.687 -37.12,-5.076 -62.13,-12.732c-50.02,-15.31 -115.19,-43.652 -183.62,-81.403c-68.444,-37.75 -127.178,-77.748 -166.811,-111.89c-19.819,-17.074 -34.841,-32.665 -43.914,-45.765c-4.538,-6.551 -7.571,-12.455 -8.983,-17.592c-1.411,-5.134 -1.192,-9.455 0.708,-12.899c1.899,-3.444 5.438,-5.935 10.533,-7.48c5.098,-1.546 11.711,-2.13 19.672,-1.787c15.92,0.687 37.122,5.076 62.135,12.732c50.021,15.31 115.18,43.652 183.62,81.403z" stroke="black"/>
<path id="Ellipse 8" d="M325.3522,237.861c68.44,37.75 127.17,77.748 166.81,111.89c19.82,17.074 34.84,32.665 43.91,45.765c4.54,6.55 7.57,12.455 8.98,17.591c1.42,5.134 1.2,9.456 -0.7,12.9c-1.9,3.444 -5.44,5.935 -10.54,7.48c-5.09,1.546 -11.71,2.13 -19.67,1.787c-15.92,-0.687 -37.12,-5.076 -62.13,-12.732c-50.02,-15.31 -115.19,-43.652 -183.63,-81.403c-68.435,-37.75 -127.168,-77.748 -166.801,-111.89c-19.819,-17.074 -34.841,-32.665 -43.915,-45.765c-4.537,-6.551 -7.571,-12.455 -8.983,-17.592c-1.411,-5.134 -1.191,-9.455 0.708,-12.899c1.9,-3.444 5.438,-5.936 10.534,-7.481c5.098,-1.546 11.71,-2.129 19.671,-1.786c15.921,0.687 37.122,5.076 62.136,12.732c50.02,15.31 115.183,43.652 183.62,81.403z" stroke="black"/>
<path id="Ellipse 9" d="M305.1222,274.535c68.44,37.75 127.18,77.748 166.81,111.89c19.82,17.074 34.84,32.665 43.91,45.765c4.54,6.551 7.57,12.455 8.99,17.592c1.41,5.134 1.19,9.456 -0.71,12.9c-1.9,3.443 -5.44,5.934 -10.53,7.479c-5.1,1.546 -11.71,2.131 -19.68,1.787c-15.92,-0.687 -37.12,-5.076 -62.13,-12.732c-50.02,-15.31 -115.18,-43.652 -183.624,-81.402c-68.439,-37.751 -127.173,-77.749 -166.806,-111.891c-19.819,-17.074 -34.841,-32.665 -43.914,-45.765c-4.538,-6.55 -7.571,-12.455 -8.983,-17.592c-1.411,-5.133 -1.192,-9.455 0.708,-12.899c1.899,-3.444 5.438,-5.935 10.533,-7.48c5.098,-1.546 11.711,-2.13 19.672,-1.787c15.92,0.687 37.122,5.076 62.135,12.732c50.021,15.31 115.184,43.652 183.619,81.403z" stroke="black"/>
<circle id="Ellipse 14" cx="131.4992000000001" cy="104.5" r="15.5" fill="#B9FF66"/>
<circle id="Ellipse 16" cx="421.0022" cy="435" r="10" fill="#B9FF66"/>
<circle id="Ellipse 15" cx="81.49920000000009" cy="64.5" r="23.5" fill="black"/>
<g id="Group">
<g id="Group_2">
<g id="Group_3">
<g id="Group_4">
<path id="Vector_4" d="M305.9722,383.59c-6.3,2.154 -13.51,-2.116 -16.02,-9.519l-38.994,-114.262l22.784,-7.795l39.04,114.419c2.51,7.325 -0.55,15.002 -6.81,17.157z" fill="black"/>
<path id="Vector_5" d="M302.5622,385c-1.84,0 -3.72,-0.431 -5.52,-1.332c-3.64,-1.802 -6.54,-5.17 -7.95,-9.323l-38.995,-114.261c-0.157,-0.431 0.078,-0.94 0.548,-1.097l22.787,-7.795c0.24,-0.079 0.47,-0.079 0.67,0.039c0.19,0.117 0.35,0.274 0.43,0.509l39.04,114.419c2.62,7.755 -0.67,15.942 -7.37,18.253c-1.13,0.392 -2.38,0.588 -3.64,0.588zM252.0552,260.358l38.727,113.439c1.25,3.721 3.83,6.777 7.04,8.343c2.59,1.254 5.37,1.489 7.88,0.627c5.79,-1.998 8.61,-9.205 6.26,-16.06l-38.76,-113.596z" fill="black"/>
</g>
<path id="Vector_6" d="M269.7122,153.382l-73.728,52.606l-28.701,29.81l-11.277,19.938l-0.039,0.156c-2.232,3.447 -0.94,11.399 3.25,19.507c4.111,7.991 9.906,13.554 13.978,13.867l-0.117,0.078l21.653,2.351l40.525,-6.464l86.026,-30.788l106.93,18.332l0.75,0.039c-26.87,-5.014 -63.12,-40.934 -89.47,-91.738c-26.32,-50.766 -34.7,-100.944 -23.15,-125.7h-0.03l-46.01,96.752z" fill="#B9FF66"/>
<g id="Group_5">
<path id="Vector_7" d="M446.7322,270.603c26.42,-13.73 21.31,-75.974 -11.42,-139.026c-32.73,-63.052 -80.69,-103.036 -107.11,-89.306c-26.43,13.73 -21.32,75.974 11.41,139.026c32.73,63.052 80.69,103.036 107.12,89.306z" fill="white"/>
<path id="Vector_8" d="M435.1022,274.185c-11.51,0 -25.37,-6.424 -40.29,-18.919c-20.32,-17 -40.25,-43.206 -56.11,-73.838c-24,-46.378 -33.91,-93.932 -25.21,-121.155c2.89,-9.088 7.75,-15.434 14.37,-18.842c13.15,-6.737 31.67,-1.018 52.19,16.139c20.32,17 40.25,43.205 56.11,73.837c24.04,46.379 33.95,93.932 25.22,121.156c-2.9,9.088 -7.76,15.433 -14.37,18.841c-3.57,1.88 -7.56,2.781 -11.91,2.781zM339.8422,40.413c-4.03,0 -7.79,0.822 -11.16,2.585c-6.23,3.173 -10.77,9.205 -13.51,17.862c-8.57,26.832 1.29,73.877 25.1,119.863c32.42,62.556 79.95,102.589 105.99,89.232c6.23,-3.173 10.77,-9.205 13.51,-17.862c8.58,-26.832 -1.29,-73.877 -25.1,-119.863c-28.23,-54.448 -67.85,-91.817 -94.83,-91.817z" fill="black"/>
</g>
<path id="Vector_9" d="M435.1022,274.185c-11.51,0 -25.37,-6.424 -40.29,-18.919c-20.32,-17.001 -40.25,-43.206 -56.11,-73.838c-24,-46.378 -33.91,-93.932 -25.21,-121.156c2.89,-9.087 7.75,-15.433 14.37,-18.841c8.81,-4.544 20.32,-3.408 33.28,3.251c12.41,6.385 25.84,17.706 38.92,32.708c0.31,0.353 0.27,0.901 -0.08,1.214c-0.35,0.314 -0.9,0.275 -1.21,-0.078c-26.55,-30.475 -53.41,-44.106 -70.09,-35.528c-6.23,3.173 -10.77,9.205 -13.51,17.862c-8.57,26.832 1.29,73.877 25.1,119.863c28.19,54.409 67.86,91.817 94.79,91.817c4.04,0 7.8,-0.823 11.16,-2.585c6.23,-3.173 10.77,-9.205 13.51,-17.862c8.58,-26.832 -1.29,-73.877 -25.1,-119.863c-7.08,-13.71 -15.07,-26.598 -23.65,-38.31c-0.27,-0.391 -0.19,-0.94 0.2,-1.214c0.39,-0.274 0.94,-0.196 1.21,0.196c8.66,11.79 16.64,24.756 23.81,38.544c24,46.339 33.91,93.893 25.18,121.117c-2.9,9.087 -7.76,15.433 -14.37,18.841c-3.57,1.88 -7.56,2.781 -11.91,2.781z" fill="black"/>
<g id="Group_6">
<path id="Vector_10" d="M386.7622,190.339c6.13,-3.181 4.95,-17.589 -2.63,-32.18c-7.57,-14.592 -18.67,-23.843 -24.8,-20.662c-6.12,3.181 -4.94,17.588 2.63,32.18c7.58,14.592 18.68,23.842 24.8,20.662z" fill="#B9FF66"/>
<path id="Vector_11" d="M384.0822,191.848c-6.73,0 -16.13,-8.696 -22.9,-21.818c-5.64,-10.89 -7.95,-22.093 -5.87,-28.556c0.74,-2.272 1.95,-3.878 3.64,-4.74c6.65,-3.408 18.05,5.876 25.96,21.113c5.64,10.89 7.95,22.093 5.87,28.556c-0.74,2.272 -1.96,3.878 -3.64,4.74c-0.94,0.47 -1.96,0.705 -3.06,0.705zM362.0022,137.714c-0.82,0 -1.6,0.156 -2.27,0.509c-1.29,0.666 -2.23,1.919 -2.82,3.76c-1.92,6.033 0.31,16.765 5.76,27.263c7.2,13.906 18.05,23.268 23.65,20.369c1.29,-0.666 2.23,-1.919 2.82,-3.76c1.91,-6.072 -0.36,-16.765 -5.76,-27.263c-6.34,-12.182 -15.43,-20.878 -21.38,-20.878z" fill="#B9FF66"/>
</g>
<path id="Vector_12" d="M429.1522,259.574c-10.1,0 -22.24,-5.64 -35.32,-16.569c-17.77,-14.885 -35.24,-37.839 -49.1,-64.632c-21.02,-40.581 -29.68,-82.22 -22.08,-106.075c2.54,-7.991 6.81,-13.553 12.65,-16.569c13.39,-6.855 33.08,1.057 54.07,21.7c0.35,0.353 0.35,0.862 0,1.215c-0.35,0.352 -0.86,0.352 -1.21,0c-20.44,-20.095 -39.43,-27.929 -52.08,-21.388c-5.4,2.781 -9.36,7.991 -11.79,15.551c-7.47,23.424 1.14,64.554 21.97,104.782c24.63,47.593 59.28,80.262 82.85,80.262c3.53,0 6.78,-0.744 9.75,-2.233c5.41,-2.781 9.36,-7.991 11.79,-15.551c7.48,-23.424 -1.14,-64.554 -21.97,-104.782c-6.3,-12.143 -13.35,-23.542 -20.95,-33.844c-0.27,-0.392 -0.19,-0.94 0.2,-1.214c0.39,-0.274 0.94,-0.196 1.21,0.196c7.68,10.419 14.77,21.857 21.11,34.078c21.02,40.581 29.68,82.22 22.08,106.075c-2.54,7.991 -6.81,13.554 -12.65,16.57c-3.21,1.606 -6.73,2.428 -10.53,2.428z" fill="black"/>
<path id="Vector_13" d="M194.7712,292.517c-0.04,0 -0.079,0 -0.079,0l-21.653,-2.35c-0.117,0 -0.234,-0.039 -0.352,-0.117c-4.464,-0.706 -10.102,-6.346 -14.213,-14.259c-4.386,-8.343 -5.678,-16.491 -3.289,-20.329l0.039,-0.118l11.277,-19.977c0.039,-0.078 0.078,-0.118 0.117,-0.157l28.701,-29.809c0.039,-0.039 0.078,-0.078 0.117,-0.117l73.536,-52.49l46.51,-97.809c0.12,-0.196 0.28,-0.353 0.51,-0.431c0.24,-0.079 0.47,-0.079 0.67,0.039c0.43,0.196 0.63,0.705 0.43,1.136c-11.79,25.265 -2.47,75.482 23.14,124.916c25.65,49.512 61.4,86.176 88.92,91.229c0.43,0.079 0.75,0.47 0.71,0.94c-0.04,0.431 -0.43,0.745 -0.86,0.784l-0.75,-0.039c-0.04,0 -0.08,0 -0.12,0l-106.73,-18.293l-85.832,30.71c-0.039,0 -0.117,0.039 -0.156,0.039l-40.526,6.463c-0.039,0.039 -0.078,0.039 -0.117,0.039zM173.6662,288.522l21.105,2.272l40.33,-6.463l85.981,-30.75c0.16,-0.039 0.28,-0.078 0.43,-0.039l96.09,16.452c-25.96,-11.399 -56.3,-45.047 -78.82,-88.526c-22.36,-43.167 -32.34,-86.999 -26.86,-114.693l-41.43,86.96c-0.07,0.117 -0.15,0.235 -0.27,0.313l-73.65,52.607l-28.584,29.652l-11.276,19.977c0,0.039 -0.039,0.079 -0.039,0.079c-2.037,3.172 -0.666,11.007 3.289,18.645c3.876,7.482 9.475,13.122 13.312,13.396c0.157,0 0.274,0.04 0.392,0.118z" fill="black"/>
<g id="Group_7">
<path id="Vector_14" d="M269.8322,153.069l46.47,-97.732h0.04c-11.55,24.756 -3.13,74.934 23.14,125.7c26.36,50.844 62.61,86.763 89.55,91.699l-0.74,-0.039l-106.78,-18.293l-2.46,-0.431c-12.42,-2.194 -28.98,-18.332 -40.84,-41.365c-12.18,-23.62 -14.33,-47.161 -8.93,-58.364z" fill="white"/>
<path id="Vector_15" d="M429.0322,273.598c-0.04,0 0,0 0,0l-0.78,-0.04c-0.04,0 -0.08,0 -0.12,0l-106.77,-18.292l-2.47,-0.431c-13.12,-2.311 -29.76,-19.116 -41.47,-41.796c-13.27,-25.774 -13.94,-48.728 -8.92,-59.148l0.58,-1.175l46.48,-97.692c0.12,-0.196 0.28,-0.353 0.51,-0.431c0.24,-0.079 0.47,-0.079 0.67,0.039c0.43,0.196 0.62,0.705 0.43,1.136c-11.79,25.265 -2.47,75.482 23.14,124.916c25.64,49.512 61.39,86.176 88.92,91.229c0.43,0.079 0.74,0.47 0.7,0.94c-0.11,0.392 -0.47,0.745 -0.9,0.745zM311.8422,66.775l-41.23,86.685l-0.59,1.175c-4.97,10.342 -3.52,33.452 8.93,57.582c11.47,22.249 27.64,38.701 40.25,40.894l2.47,0.431l95.89,16.452c-25.96,-11.399 -56.3,-45.047 -78.82,-88.527c-22.36,-43.166 -32.34,-86.998 -26.9,-114.692z" fill="black"/>
</g>
<path id="Vector_16" d="M193.5952,292.4c-0.039,0 -0.078,0 -0.078,0l-20.517,-2.194c-0.118,0 -0.235,-0.039 -0.353,-0.117c-4.463,-0.706 -10.102,-6.346 -14.213,-14.259c-4.346,-8.382 -5.638,-16.53 -3.25,-20.369l0.039,-0.117l11.277,-19.977c0.235,-0.431 0.744,-0.549 1.175,-0.314c0.43,0.235 0.548,0.745 0.313,1.175l-11.277,20.056c0,0.039 -0.039,0.078 -0.039,0.078c-2.036,3.173 -0.666,11.007 3.289,18.646c3.876,7.481 9.476,13.122 13.313,13.396c0.117,0 0.274,0.039 0.352,0.118l20.048,2.154c0.47,0.039 0.822,0.47 0.744,0.94c-0.039,0.431 -0.392,0.784 -0.823,0.784z" fill="black"/>
<g id="Group_8">
<path id="Vector_17" d="M194.9662,291.538c-6.657,-0.47 -15.976,-9.91 -22.75,-22.954c-7.165,-13.827 -8.849,-28.125 -4.463,-33.217l-11.708,20.369l-0.078,0.157c-2.232,3.447 -0.94,11.398 3.25,19.507c4.111,7.991 9.906,13.553 13.978,13.866l-0.117,0.079z" fill="white"/>
<path id="Vector_18" d="M194.9662,292.4c-0.039,0 -0.039,0 -0.078,0c-0.157,0 -0.353,-0.039 -0.509,-0.039l-21.379,-2.155c-0.118,0 -0.235,-0.039 -0.353,-0.117c-4.463,-0.705 -10.102,-6.346 -14.213,-14.259c-4.346,-8.382 -5.638,-16.53 -3.25,-20.368l0.039,-0.118l10.298,-17.94c0.392,-1.019 0.901,-1.92 1.527,-2.664c0.274,-0.352 0.783,-0.392 1.136,-0.157c0.352,0.275 0.47,0.745 0.235,1.136l-1.449,2.468c-2.31,6.228 -0.039,18.45 5.912,29.888c6.461,12.495 15.271,21.622 21.575,22.445l0.47,0.039c0.47,0.039 0.822,0.47 0.783,0.94c0.039,0.548 -0.313,0.901 -0.744,0.901zM173.6262,288.522l14.958,1.528c-5.756,-3.683 -12.099,-11.282 -17.15,-21.074c-4.895,-9.441 -7.322,-19.233 -6.931,-26.284l-7.792,13.592c0,0.039 -0.039,0.079 -0.039,0.079c-2.036,3.172 -0.666,11.007 3.289,18.645c3.876,7.482 9.476,13.122 13.313,13.396c0.117,0 0.274,0.04 0.352,0.118z" fill="black"/>
</g>
<g id="Group_9">
<path id="Vector_19" d="M233.8072,285.388l1.723,-0.353c-9.319,1.959 -24.041,-12.143 -34.417,-32.159c-10.611,-20.447 -12.608,-40.855 -5.091,-46.888l-0.978,0.98l-27.213,28.281c-4.464,5.014 -2.82,19.39 4.385,33.295c6.931,13.397 16.758,22.955 23.454,22.915z" fill="black"/>
<path id="Vector_20" d="M195.6322,292.36c-7.127,0 -17.033,-9.596 -24.198,-23.385c-7.283,-14.101 -9.123,-28.829 -4.268,-34.274l26.704,-27.733c0.47,-0.627 1.018,-1.175 1.605,-1.645c0.352,-0.275 0.861,-0.235 1.175,0.078c0.313,0.352 0.313,0.862 0,1.175l-1.527,1.606c-5.443,7.286 -2.741,25.931 6.773,44.302c10.259,19.821 24.59,33.413 33.361,31.768l0.117,-0.039c0.47,-0.078 0.901,0.196 1.018,0.666c0.079,0.47 -0.196,0.901 -0.665,1.018c-0.04,0 -0.079,0 -0.118,0.039l-1.605,0.314h-0.039l-38.138,6.071c-0.078,0 -0.156,0.039 -0.195,0.039zM191.5992,211.825l-23.141,24.051c-4.307,4.857 -2.349,19.037 4.542,32.316c6.735,13.005 16.249,22.406 22.632,22.445l33.673,-5.367c-9.084,-3.212 -20.282,-15.315 -28.936,-31.963c-8.222,-15.864 -11.394,-32.003 -8.77,-41.482z" fill="black"/>
</g>
<g id="Group_10">
<path id="Vector_21" d="M359.3422,137.479c-6.15,3.133 -5.25,17.666 2.58,32.159c13.12,24.247 23.57,21.387 24.79,20.956c0.04,0 0.04,0.04 0,0.04l-22.52,18.136c-6.61,-9.284 -12.92,-19.625 -18.71,-30.789c-5.52,-10.693 -10.18,-21.348 -13.86,-31.689z" fill="black"/>
<path id="Vector_22" d="M364.1922,209.631c-0.04,0 -0.07,0 -0.11,0c-0.24,-0.039 -0.43,-0.156 -0.59,-0.352c-6.78,-9.519 -13.08,-19.938 -18.76,-30.867c-5.44,-10.498 -10.14,-21.191 -13.9,-31.767c-0.08,-0.235 -0.08,-0.471 0.04,-0.666c0.12,-0.196 0.28,-0.353 0.51,-0.431l27.72,-8.814c0.43,-0.117 0.9,0.079 1.06,0.509c0.16,0.431 0,0.901 -0.39,1.097c-1.33,0.666 -2.31,1.998 -2.9,3.957c-1.92,6.149 0.43,17.039 5.87,27.028c12.81,23.659 22.68,20.956 23.73,20.564c0.39,-0.156 0.86,0.039 1.06,0.392c0.2,0.353 0.12,0.862 -0.2,1.136l-22.59,18.019c-0.16,0.117 -0.35,0.195 -0.55,0.195zM332.7522,146.84c3.72,10.224 8.26,20.565 13.51,30.75c5.48,10.576 11.59,20.643 18.13,29.926l19.54,-15.746c-4.47,-0.196 -12.88,-3.526 -22.75,-21.74c-5.72,-10.537 -8.07,-21.662 -5.99,-28.36c0.27,-0.862 0.59,-1.606 0.98,-2.311z" fill="black"/>
</g>
</g>
</g>
<g id="Group_11">
<g id="Group_12">
<path id="Vector_23" d="M475.1822,81.597c17.9,-9.403 24.83,-31.481 15.47,-49.312c-9.36,-17.83 -31.46,-24.662 -49.36,-15.258c-17.9,9.404 -24.82,31.481 -15.46,49.312c9.36,17.831 31.45,24.662 49.35,15.258z" fill="black"/>
<g id="Group_13">
<path id="Vector_24" d="M441.5622,41.235c1.73,-2.35 4.27,-3.799 7.17,-4.113c2.19,-0.235 4.23,0.235 6.15,1.41c0.98,0.588 1.84,1.332 2.66,2.233c0.59,-1.057 1.29,-1.998 2.11,-2.781c1.61,-1.567 3.53,-2.468 5.68,-2.703c2.9,-0.313 5.72,0.549 7.91,2.468c2.15,1.88 3.53,4.622 3.88,7.717c0.35,3.173 -0.51,6.228 -2.7,9.597c-1.96,3.016 -4.94,6.149 -8.38,9.831c-1.18,1.254 -2.51,2.664 -3.88,4.153c-0.35,0.391 -0.86,0.666 -1.41,0.705c-0.55,0.078 -1.06,-0.079 -1.53,-0.392c-1.68,-1.175 -3.29,-2.272 -4.7,-3.212c-4.15,-2.82 -7.75,-5.249 -10.33,-7.756c-2.9,-2.781 -4.39,-5.601 -4.74,-8.774c-0.31,-3.095 0.43,-6.072 2.11,-8.383z" fill="white"/>
</g>
</g>
<g id="Group_14">
<g id="Group_15">
<path id="Vector_25" d="M576.7322,83.592c13.11,-13.109 13.11,-34.364 0,-47.474c-13.1,-13.109 -34.35,-13.109 -47.45,0c-13.11,13.11 -13.11,34.365 0,47.474c13.1,13.11 34.35,13.11 47.45,0z" fill="#B9FF66"/>
<path id="Vector_26" d="M553.0022,94.273c-18.95,0 -34.42,-15.433 -34.42,-34.431c0,-18.959 15.43,-34.432 34.42,-34.432c18.99,0 34.42,15.434 34.42,34.432c0,18.958 -15.43,34.431 -34.42,34.431zM553.0022,27.134c-18.01,0 -32.7,14.65 -32.7,32.708c0,18.018 14.65,32.707 32.7,32.707c18.01,0 32.69,-14.649 32.69,-32.707c0,-18.019 -14.64,-32.708 -32.69,-32.708z" fill="#B9FF66"/>
</g>
<path id="Vector_27" d="M562.0822,63.171c-1.88,0 -3.52,0.901 -4.62,2.311l-11.31,-4.426c0,-0.157 0.04,-0.274 0.04,-0.431c0,-0.274 -0.04,-0.548 -0.08,-0.822l11.59,-5.367c1.05,1.214 2.62,1.998 4.38,2.037c3.21,0 5.88,-2.624 5.88,-5.876c0,-3.251 -2.63,-5.914 -5.88,-5.914c-3.21,0 -5.87,2.624 -5.87,5.875c0,0.274 0.04,0.549 0.08,0.823l-11.59,5.366c-1.06,-1.214 -2.63,-1.997 -4.39,-2.037c-3.21,0 -5.87,2.625 -5.87,5.876c0,3.251 2.62,5.915 5.87,5.915c1.88,0 3.53,-0.901 4.62,-2.311l11.32,4.426c0,0.157 -0.04,0.274 -0.04,0.431c0,3.251 2.62,5.915 5.87,5.915c3.21,0 5.88,-2.625 5.88,-5.876c-0.04,-3.251 -2.67,-5.876 -5.88,-5.915z" fill="black"/>
</g>
<g id="Group_16">
<path id="Vector_28" d="M562.5322,189.993c15.36,-10.671 19.22,-31.71 8.62,-46.994c-10.6,-15.284 -31.66,-19.024 -47.02,-8.354c-15.37,10.67 -19.23,31.71 -8.63,46.994c10.61,15.284 31.66,19.024 47.03,8.354z" fill="black"/>
<path id="Vector_29" d="M534.8722,178.373l-4.93,-26.754c-0.24,-1.371 1.02,-2.507 2.35,-2.154l29.17,8.265c1.49,0.431 1.84,2.35 0.62,3.29l-24.27,18.489c-1.06,0.862 -2.66,0.274 -2.94,-1.136z" fill="white"/>
</g>
<g id="Group_17">
<g id="Group_18">
<path id="Vector_30" d="M543.0022,299.581c18.97,-9.241 26.91,-32.028 17.73,-50.895c-9.18,-18.867 -32.01,-26.67 -50.98,-17.429c-18.98,9.242 -26.92,32.029 -17.74,50.896c9.18,18.867 32.01,26.67 50.99,17.428z" fill="#B9FF66"/>
<path id="Vector_31" d="M526.1822,304.347c-4.07,0 -8.22,-0.627 -12.26,-1.998c-9.86,-3.29 -17.85,-10.184 -22.47,-19.507c-4.62,-9.284 -5.33,-19.821 -2,-29.692c6.89,-20.329 29.05,-31.415 49.45,-24.638c9.87,3.29 17.86,10.184 22.48,19.507c4.62,9.283 5.32,19.82 2,29.691c-5.56,16.296 -20.87,26.637 -37.2,26.637zM526.5722,228.277c-15.62,0 -30.27,9.871 -35.55,25.461c-3.17,9.44 -2.51,19.507 1.92,28.36c4.42,8.891 12.05,15.511 21.49,18.645c19.5,6.463 40.68,-4.113 47.26,-23.542c3.17,-9.44 2.51,-19.507 -1.92,-28.36c-4.42,-8.891 -12.06,-15.511 -21.49,-18.645c-3.88,-1.332 -7.83,-1.919 -11.71,-1.919z" fill="black"/>
</g>
<g id="Group_19">
<path id="Vector_32" d="M545.8422,259.261c-0.4,9.519 -16.49,31.768 -20.33,36.977c-0.39,0.549 -1.21,0.51 -1.56,-0.078c-2.43,-3.917 -10.46,-17.078 -14.65,-27.733c-1.68,-4.23 -2.74,-8.069 -2.62,-10.772c0.43,-10.811 9.55,-19.233 20.36,-18.802c10.81,0.509 19.23,9.597 18.8,20.408z" fill="black"/>
<path id="Vector_33" d="M532.5922,264.826c3.5,-3.503 3.5,-9.182 0,-12.685c-3.5,-3.503 -9.18,-3.503 -12.68,0c-3.5,3.503 -3.5,9.182 0,12.685c3.5,3.503 9.18,3.503 12.68,0z" fill="#B9FF66"/>
</g>
</g>
</g>
</g>
</g></svg>